<?xml version="1.0" standalone="no"?>
<!DOCTYPE svg PUBLIC "-//W3C//DTD SVG 20010904//EN"
 "http://www.w3.org/TR/2001/REC-SVG-20010904/DTD/svg10.dtd">
<svg version="1.0" xmlns="http://www.w3.org/2000/svg"
 width="942.000000pt" height="942.000000pt" viewBox="0 0 942.000000 942.000000"
 preserveAspectRatio="xMidYMid meet">
<metadata>
Created by potrace 1.11, written by Peter Selinger 2001-2013
</metadata>
<g transform="translate(0.000000,942.000000) scale(0.100000,-0.100000)"
fill="#000000" stroke="none">
<path d="M5363 8195 c-12 -14 -19 -25 -17 -25 3 0 -4 -13 -15 -29 -12 -16 -42
-72 -66 -124 -25 -52 -52 -100 -59 -106 -7 -6 -13 -22 -13 -36 0 -13 -8 -39
-16 -58 -9 -18 -50 -120 -91 -227 -42 -107 -80 -202 -85 -210 -5 -9 -12 -30
-16 -48 -3 -18 -10 -32 -14 -32 -4 0 -8 -7 -9 -15 -1 -8 -3 -22 -4 -30 -1 -8
-5 -15 -10 -15 -4 0 -8 -6 -8 -13 0 -12 -16 -56 -55 -152 -5 -11 -9 -22 -10
-25 -1 -3 -7 -18 -14 -35 -6 -16 -19 -50 -29 -75 -9 -25 -22 -56 -29 -69 -6
-14 -10 -28 -7 -33 3 -4 0 -8 -5 -8 -6 0 -11 -6 -11 -13 0 -13 -67 -190 -95
-252 -27 -60 -85 -211 -85 -222 0 -18 -20 -22 -165 -37 -27 -3 -73 -8 -100
-11 -53 -6 -108 -12 -190 -20 -27 -3 -70 -8 -95 -10 -25 -2 -47 -5 -50 -6 -3
-1 -8 -1 -11 -1 -4 1 -32 -3 -64 -8 -76 -12 -165 -24 -192 -24 -13 -1 -23 -5
-23 -9 0 -5 -4 -6 -8 -3 -4 3 -26 1 -48 -4 -21 -5 -59 -12 -84 -16 -25 -3 -70
-12 -100 -19 -30 -8 -68 -16 -85 -18 -16 -3 -64 -13 -105 -22 -41 -9 -82 -18
-90 -20 -8 -1 -35 -8 -60 -15 -25 -7 -52 -13 -60 -15 -18 -4 -138 -36 -240
-65 -113 -32 -365 -115 -455 -150 -44 -17 -91 -35 -105 -39 -43 -14 -308 -140
-333 -158 -6 -5 -35 -19 -64 -32 l-52 -24 -138 56 c-149 60 -255 98 -290 102
-11 2 -29 6 -40 9 -24 7 -79 17 -128 22 -63 6 -266 6 -305 0 -114 -20 -203
-41 -260 -61 -68 -23 -201 -84 -210 -95 -3 -4 -15 -13 -28 -19 -36 -19 -61
-40 -132 -111 -73 -72 -90 -96 -143 -191 -124 -222 -167 -431 -127 -608 18
-80 56 -187 73 -208 5 -7 6 -13 3 -13 -4 0 1 -12 11 -27 10 -16 26 -44 36 -63
15 -31 26 -50 49 -84 14 -21 123 -151 151 -181 55 -58 97 -149 111 -240 4 -22
9 -47 11 -55 4 -14 11 -77 20 -195 6 -72 19 -164 29 -210 15 -62 27 -125 25
-127 -1 -2 4 -14 11 -28 8 -14 15 -31 17 -37 8 -35 17 -60 39 -110 8 -17 14
-34 14 -37 0 -16 104 -214 152 -288 55 -88 158 -226 218 -293 87 -99 335 -334
362 -344 5 -2 22 -15 38 -30 62 -57 313 -227 460 -309 158 -89 583 -287 634
-296 6 -1 20 -7 31 -12 67 -36 595 -192 740 -220 11 -2 52 -10 90 -18 39 -9
97 -20 130 -26 33 -5 71 -12 85 -15 14 -2 41 -7 60 -9 19 -3 46 -7 60 -10 14
-3 45 -8 70 -11 25 -2 77 -9 115 -14 39 -5 102 -12 140 -16 39 -3 88 -8 110
-10 189 -20 819 -28 1005 -12 47 3 114 8 150 11 82 5 175 15 265 27 39 5 86
12 105 14 58 7 244 37 310 50 60 12 77 16 105 21 17 3 48 9 70 15 22 5 51 12
65 15 59 12 230 57 290 75 36 11 74 22 85 25 65 13 407 135 530 189 287 125
491 234 705 376 180 119 332 242 481 389 156 154 242 258 345 415 56 86 175
307 180 335 1 6 10 29 34 90 14 37 23 65 35 110 0 3 5 23 10 45 4 22 10 45 11
50 6 18 25 109 29 140 7 56 18 190 16 205 -6 60 1 173 13 208 22 61 46 92 166
218 98 101 190 219 190 242 0 5 7 15 15 22 8 6 14 15 13 18 -1 4 3 17 10 30
16 27 50 133 60 182 4 19 6 91 6 160 -1 144 -25 242 -95 389 -115 243 -258
377 -529 494 -201 86 -453 105 -720 54 -44 -8 -183 -57 -235 -81 -27 -13 -85
-40 -129 -60 l-78 -37 -44 17 c-32 12 -43 21 -40 33 3 9 7 28 10 44 3 15 7 35
10 45 16 54 23 198 11 252 -3 14 -7 37 -10 53 -16 83 -91 248 -137 297 -10 10
-18 23 -18 29 0 5 -3 11 -7 13 -5 2 -33 32 -63 68 -161 190 -291 283 -415 295
-5 0 -39 4 -75 9 -36 4 -85 9 -110 11 -25 2 -45 4 -45 5 0 0 -34 2 -75 5 -112
5 -234 16 -243 22 -4 2 -22 29 -40 59 -18 30 -46 78 -64 107 -18 29 -41 68
-53 87 -25 42 -26 45 -170 280 -62 102 -129 212 -150 245 -20 33 -55 89 -77
125 -238 385 -309 490 -333 494 -87 18 -105 16 -127 -9z m153 -587 c16 -24 33
-51 39 -60 5 -10 32 -53 59 -95 59 -93 239 -392 249 -413 4 -8 17 -31 29 -50
62 -102 189 -345 202 -388 6 -17 -6 -45 -53 -120 -73 -118 -91 -159 -106 -237
-13 -68 -13 -68 -110 -49 -33 7 -83 15 -112 18 -28 3 -57 8 -65 10 -7 3 -35 7
-63 10 -27 4 -63 8 -80 11 -48 7 -235 34 -290 41 -27 3 -59 8 -70 10 -11 2
-42 7 -70 10 -79 9 -98 13 -107 22 -6 6 42 149 81 237 10 23 24 58 25 65 2 7
65 170 81 205 7 17 16 41 20 54 4 13 14 40 23 60 9 20 16 41 18 46 1 6 10 28
19 50 10 22 19 42 19 45 2 7 25 67 41 105 7 17 25 62 39 100 15 39 31 78 36
87 6 10 10 25 10 33 0 8 5 15 11 15 5 0 8 4 5 8 -3 5 2 22 11 38 8 16 21 45
28 64 21 55 45 110 49 110 2 0 16 -19 32 -42z m1217 -1145 c-7 -2 -21 -2 -30
0 -10 3 -4 5 12 5 17 0 24 -2 18 -5z m77 1 c0 -8 -19 -13 -24 -6 -3 5 1 9 9 9
8 0 15 -2 15 -3z m-220 -9 c0 -2 -10 -9 -22 -15 -22 -11 -22 -10 -4 4 21 17
26 19 26 11z m290 -15 c8 -5 11 -10 5 -10 -5 0 -17 5 -25 10 -8 5 -10 10 -5
10 6 0 17 -5 25 -10z m-385 -30 c-79 -46 -86 -52 -144 -110 -36 -36 -47 -44
-32 -22 38 54 180 160 216 161 6 1 -12 -13 -40 -29z m467 -9 c92 -51 202 -175
243 -273 24 -60 11 -44 -25 28 -43 87 -151 201 -224 237 -31 15 -56 30 -56 32
0 9 8 5 62 -24z m-669 -176 c-3 -9 -8 -14 -10 -11 -3 3 -2 9 2 15 9 16 15 13
8 -4z m-17 -47 c-3 -13 -5 -34 -5 -48 -1 -19 -3 -22 -10 -11 -6 10 -5 23 1 35
6 12 11 22 10 24 -4 5 -2 22 3 22 3 0 3 -10 1 -22z m963 -143 c0 -5 -4 -3 -9
5 -5 8 -9 22 -9 30 0 16 17 -16 18 -35z m-2271 -70 c3 -3 -37 -5 -89 -5 -52 0
-176 -2 -276 -3 -101 -2 -183 0 -183 4 0 4 55 8 122 8 67 1 123 3 124 4 5 5
297 -3 302 -8z m-558 -7 c0 -4 -39 -8 -87 -9 -49 0 -96 -2 -106 -4 -9 -2 -15
0 -12 4 2 5 39 9 82 10 43 1 79 4 81 6 7 7 42 1 42 -7z m600 8 c0 -11 -19 -15
-25 -6 -3 5 1 10 9 10 9 0 16 -2 16 -4z m80 -6 c0 -4 -7 -7 -15 -6 -23 3 -26
12 -5 13 11 1 20 -2 20 -7z m106 -8 c-10 -2 -22 0 -28 6 -6 6 0 7 19 4 21 -5
23 -7 9 -10z m-1011 -2 c3 -5 1 -10 -4 -10 -6 0 -11 5 -11 10 0 6 2 10 4 10 3
0 8 -4 11 -10z m1125 -6 c0 -2 -9 -4 -20 -4 -11 0 -20 4 -20 9 0 5 9 7 20 4
11 -3 20 -7 20 -9z m1937 -6 c-3 -8 -6 -5 -6 6 -1 11 2 17 5 13 3 -3 4 -12 1
-19z m-3090 6 c-3 -3 -12 -4 -19 -1 -8 3 -5 6 6 6 11 1 17 -2 13 -5z m1243
-10 c0 -2 -7 -4 -15 -4 -8 0 -15 4 -15 10 0 5 7 7 15 4 8 -4 15 -8 15 -10z
m50 -3 c0 -5 -9 -7 -20 -4 -11 3 -20 7 -20 9 0 2 9 4 20 4 11 0 20 -4 20 -9z
m50 -6 c0 -2 -9 -3 -19 -2 -11 0 -18 5 -15 9 4 6 34 0 34 -7z m-1590 -5 c0 -5
-5 -10 -11 -10 -5 0 -7 5 -4 10 3 6 8 10 11 10 2 0 4 -4 4 -10z m57 4 c-3 -3
-12 -4 -19 -1 -8 3 -5 6 6 6 11 1 17 -2 13 -5z m1593 -4 c11 -8 7 -9 -15 -4
-37 8 -45 14 -19 14 10 0 26 -5 34 -10z m-1723 -6 c-3 -3 -12 -4 -19 -1 -8 3
-5 6 6 6 11 1 17 -2 13 -5z m40 0 c-3 -3 -12 -4 -19 -1 -8 3 -5 6 6 6 11 1 17
-2 13 -5z m1736 -1 c-7 -2 -19 -2 -25 0 -7 3 -2 5 12 5 14 0 19 -2 13 -5z
m-1899 -11 c2 -4 -5 -9 -17 -9 -17 -2 -19 0 -7 7 18 12 18 12 24 2z m83 2 c-3
-3 -12 -4 -19 -1 -8 3 -5 6 6 6 11 1 17 -2 13 -5z m1890 0 c-3 -3 -12 -4 -19
-1 -8 3 -5 6 6 6 11 1 17 -2 13 -5z m-2038 -18 c-2 -2 -17 -6 -34 -10 -22 -5
-26 -4 -15 4 14 9 59 15 49 6z m2174 -3 c-7 -2 -19 -2 -25 0 -7 3 -2 5 12 5
14 0 19 -2 13 -5z m-2273 -13 c0 -5 -12 -10 -27 -9 l-28 1 25 8 c14 4 26 8 28
9 1 1 2 -3 2 -9z m2347 4 c-3 -3 -12 -4 -19 -1 -8 3 -5 6 6 6 11 1 17 -2 13
-5z m57 -49 l6 -30 -15 25 c-8 14 -14 32 -15 40 0 23 17 -2 24 -35z m1299 4
c-3 -11 -9 -22 -14 -25 -5 -3 -5 5 0 18 4 13 6 30 4 38 -4 12 -3 12 5 1 5 -7
7 -22 5 -32z m-3803 23 c0 -5 -7 -9 -15 -9 -8 0 -12 4 -9 9 3 4 9 8 15 8 5 0
9 -4 9 -8z m-50 -12 c-8 -5 -22 -9 -30 -9 -10 0 -8 3 5 9 27 12 43 12 25 0z
m-50 -8 c0 -5 -7 -9 -15 -9 -8 0 -12 4 -9 9 3 4 9 8 15 8 5 0 9 -4 9 -8z m-65
-12 c-3 -5 -12 -10 -18 -10 -7 0 -6 4 3 10 19 12 23 12 15 0z m-40 -10 c-3 -5
-12 -10 -18 -10 -7 0 -6 4 3 10 19 12 23 12 15 0z m-65 -17 c-8 -3 -23 -10
-32 -15 -11 -5 -18 -5 -18 1 0 10 23 18 50 19 13 0 13 0 0 -5z m-85 -23 c-3
-5 -16 -10 -28 -9 -20 1 -20 2 3 9 14 4 26 8 28 9 2 1 0 -3 -3 -9z m-65 -14
c0 -2 -7 -7 -16 -10 -8 -3 -12 -2 -9 4 6 10 25 14 25 6z m3290 -16 c6 -11 7
-20 2 -20 -6 0 -12 9 -15 20 -3 11 -3 20 -1 20 2 0 8 -9 14 -20z m-3340 0 c-8
-5 -22 -9 -30 -9 -10 0 -8 3 5 9 27 12 43 12 25 0z m-50 -10 c0 -5 -5 -10 -11
-10 -5 0 -7 5 -4 10 3 6 8 10 11 10 2 0 4 -4 4 -10z m-37 -17 c-7 -2 -19 -2
-25 0 -7 3 -2 5 12 5 14 0 19 -2 13 -5z m3451 -18 c3 -8 1 -15 -4 -15 -6 0
-10 7 -10 15 0 8 2 15 4 15 2 0 6 -7 10 -15z m-3529 -5 c-3 -5 -12 -10 -18
-10 -7 0 -6 4 3 10 19 12 23 12 15 0z m-35 -8 c0 -4 -16 -12 -35 -18 -44 -14
-45 -8 -2 11 39 17 37 17 37 7z m3600 -44 c15 -21 17 -28 6 -19 -16 13 -41 51
-33 51 2 0 14 -15 27 -32z m-3685 12 c-3 -5 -12 -10 -18 -10 -7 0 -6 4 3 10
19 12 23 12 15 0z m-35 -9 c0 -5 -10 -11 -22 -14 -22 -6 -22 -6 -4 8 23 17 26
18 26 6z m-50 -15 c0 -9 -59 -34 -65 -28 -5 5 25 20 63 31 1 1 2 -1 2 -3z
m-80 -36 c0 -5 -8 -10 -17 -10 -15 0 -16 2 -3 10 19 12 20 12 20 0z m-60 -25
c-14 -8 -32 -14 -40 -14 -8 0 -1 7 15 14 39 18 57 18 25 0z m4020 -17 c0 -6
-6 -5 -15 2 -8 7 -15 14 -15 16 0 2 7 1 15 -2 8 -4 15 -11 15 -16z m-4083 -4
c-10 -10 -107 -54 -107 -48 0 4 99 54 109 54 2 0 2 -3 -2 -6z m3667 -10 c3 -8
2 -12 -4 -9 -6 3 -10 10 -10 16 0 14 7 11 14 -7z m486 -14 c8 -5 11 -10 5 -10
-5 0 -17 5 -25 10 -8 5 -10 10 -5 10 6 0 17 -5 25 -10z m480 1 c0 -5 -7 -12
-16 -15 -14 -5 -15 -4 -4 9 14 17 20 19 20 6z m-5837 -20 c15 -1 27 -4 27 -8
0 -5 -65 -8 -144 -8 -79 0 -142 3 -140 6 2 4 29 7 60 8 32 0 58 2 60 3 1 2 26
2 56 1 29 -1 65 -2 81 -2z m7097 -1 c0 -5 -8 -10 -17 -10 -15 0 -16 2 -3 10
19 12 20 12 20 0z m125 -4 c66 -6 105 -13 113 -21 5 -4 -50 1 -96 10 -9 2 -44
4 -77 5 -41 1 -54 4 -40 9 11 5 25 7 30 5 6 -2 37 -5 70 -8z m-6136 -10 c-12
-11 -109 -52 -109 -46 0 7 103 57 109 53 2 -2 2 -5 0 -7z m4681 -3 c-37 -16
-76 -26 -67 -17 3 3 8 5 11 5 3 0 20 6 38 14 18 8 38 14 43 14 6 0 -6 -7 -25
-16z m1238 10 c-10 -2 -28 -2 -40 0 -13 2 -5 4 17 4 22 1 32 -1 23 -4z m49 1
c-3 -3 -12 -4 -19 -1 -8 3 -5 6 6 6 11 1 17 -2 13 -5z m-6934 -11 c-7 -2 -19
-2 -25 0 -7 3 -2 5 12 5 14 0 19 -2 13 -5z m6816 3 c-2 -2 -20 -6 -39 -10 -25
-4 -31 -3 -20 4 14 9 69 15 59 6z m-1442 -12 c-3 -3 -12 -4 -19 -1 -8 3 -5 6
6 6 11 1 17 -2 13 -5z m1346 -11 c-28 -19 -30 -58 -5 -94 31 -46 96 -122 135
-157 20 -19 37 -39 37 -45 0 -6 -39 29 -86 78 -88 92 -126 151 -117 186 5 18
40 50 53 48 3 0 -5 -7 -17 -16z m-6643 -23 c7 -13 7 -21 -2 -26 -7 -4 -10 -3
-5 1 4 5 0 19 -9 33 -9 13 -11 21 -5 18 6 -4 15 -16 21 -26z m5335 20 c3 -6
-1 -7 -9 -4 -18 7 -21 14 -7 14 6 0 13 -4 16 -10z m155 2 c0 -4 -10 -9 -22 -9
-18 -2 -20 0 -8 7 18 12 30 13 30 2z m1720 -4 c0 -11 -12 -10 -30 2 -12 7 -10
9 8 7 12 0 22 -5 22 -9z m-1827 -5 c-7 -2 -19 -2 -25 0 -7 3 -2 5 12 5 14 0
19 -2 13 -5z m50 0 c-7 -2 -19 -2 -25 0 -7 3 -2 5 12 5 14 0 19 -2 13 -5z
m-6088 -23 c-3 -5 -12 -10 -18 -10 -7 0 -6 4 3 10 19 12 23 12 15 0z m8055
-65 c57 -36 134 -116 161 -167 6 -13 15 -25 19 -28 10 -8 52 -111 47 -117 -3
-2 -10 11 -17 31 -16 51 -85 153 -138 206 -44 43 -134 110 -150 110 -4 0 -18
10 -32 21 -20 16 -16 16 22 -5 25 -13 65 -37 88 -51z m-6655 56 c-16 -16 -138
-82 -142 -77 -2 2 29 22 69 44 78 43 88 47 73 33z m-1435 -11 c0 -5 -5 -10
-11 -10 -5 0 -7 5 -4 10 3 6 8 10 11 10 2 0 4 -4 4 -10z m-30 -13 c0 -2 -31
-25 -68 -51 -38 -26 -84 -65 -103 -88 -63 -77 -61 -74 -53 -58 21 41 86 108
148 151 67 47 76 53 76 46z m710 -17 c-6 -11 -13 -20 -16 -20 -2 0 0 9 6 20 6
11 13 20 16 20 2 0 0 -9 -6 -20z m-32 -48 c-24 -35 -109 -125 -113 -121 -3 4
116 139 123 139 2 0 -3 -8 -10 -18z m6031 15 c-2 -1 -15 -11 -29 -22 l-25 -20
19 23 c11 12 24 22 29 22 6 0 8 -1 6 -3z m-5409 -22 c-7 -8 -16 -15 -21 -15
-10 0 -164 -101 -241 -157 -27 -19 -48 -30 -48 -24 0 6 4 11 9 11 5 0 16 6 23
13 25 25 273 187 287 187 2 0 -2 -7 -9 -15z m5485 -15 c39 -26 25 -26 -17 0
-18 11 -28 20 -23 20 6 0 24 -9 40 -20z m145 -97 c0 -7 -61 31 -73 46 -7 8 7
2 31 -14 23 -15 42 -30 42 -32z m-340 33 c0 -2 -8 -10 -17 -17 -16 -13 -17
-12 -4 4 13 16 21 21 21 13z m380 -58 c0 -6 -6 -5 -15 2 -8 7 -15 14 -15 16 0
2 7 1 15 -2 8 -4 15 -11 15 -16z m-6444 -23 c-20 -19 -38 -35 -41 -35 -9 0 59
70 68 70 4 0 -8 -16 -27 -35z m6540 -42 c15 -13 30 -23 33 -23 3 0 17 -10 31
-23 14 -12 36 -30 48 -39 96 -66 413 -388 383 -388 -6 0 -11 4 -11 9 0 20
-290 303 -390 381 -25 19 -47 37 -50 40 -3 3 -23 17 -45 33 -22 15 -51 37 -65
48 l-25 21 32 -18 c18 -10 45 -29 59 -41z m-7338 -24 c-6 -16 -12 -28 -14 -26
-5 5 13 57 20 57 3 0 0 -14 -6 -31z m1252 11 c0 -5 -5 -10 -11 -10 -5 0 -7 5
-4 10 3 6 8 10 11 10 2 0 4 -4 4 -10z m-36 -25 c-4 -8 -9 -15 -13 -15 -8 0
-41 -24 -91 -67 -21 -18 -41 -33 -44 -33 -7 0 41 43 114 103 39 31 41 32 34
12z m7419 -65 c3 -11 1 -18 -4 -14 -5 3 -9 12 -9 20 0 20 7 17 13 -6z m-8666
-12 c-3 -8 -6 -5 -6 6 -1 11 2 17 5 13 3 -3 4 -12 1 -19z m-10 -40 c-3 -8 -6
-5 -6 6 -1 11 2 17 5 13 3 -3 4 -12 1 -19z m8687 -14 c3 -8 2 -12 -4 -9 -6 3
-10 10 -10 16 0 14 7 11 14 -7z m-7596 -8 c-7 -8 -15 -12 -17 -11 -5 6 10 25
20 25 5 0 4 -6 -3 -14z m-1097 -19 c-10 -9 -11 -8 -5 6 3 10 9 15 12 12 3 -3
0 -11 -7 -18z m1062 -12 c-3 -9 -8 -14 -10 -11 -3 3 -2 9 2 15 9 16 15 13 8
-4z m7647 -9 c0 -3 -4 -8 -10 -11 -5 -3 -10 -1 -10 4 0 6 5 11 10 11 6 0 10
-2 10 -4z m-7685 -26 c-3 -5 -12 -10 -18 -10 -7 0 -6 4 3 10 19 12 23 12 15 0z
m7685 -20 c0 -5 -4 -10 -10 -10 -5 0 -10 5 -10 10 0 6 5 10 10 10 6 0 10 -4
10 -10z m-7725 -20 c-3 -5 -12 -10 -18 -10 -7 0 -6 4 3 10 19 12 23 12 15 0z
m7722 -25 c0 -8 -4 -12 -9 -9 -4 3 -8 9 -8 15 0 5 4 9 8 9 5 0 9 -7 9 -15z
m-8697 -11 c0 -8 -5 -12 -10 -9 -6 4 -8 11 -5 16 9 14 15 11 15 -7z m950 13
c0 -2 -10 -12 -22 -23 l-23 -19 19 23 c18 21 26 27 26 19z m-71 -76 c-13 -16
-30 -32 -38 -36 -7 -3 2 12 20 33 39 45 53 47 18 3z m-871 -2 c-3 -8 -7 -3
-11 10 -4 17 -3 21 5 13 5 -5 8 -16 6 -23z m8679 -6 c-3 -10 -5 -4 -5 12 0 17
2 24 5 18 2 -7 2 -21 0 -30z m-5897 23 c0 -2 -8 -10 -17 -17 -16 -13 -17 -12
-4 4 13 16 21 21 21 13z m-2773 -58 c-3 -8 -6 -5 -6 6 -1 11 2 17 5 13 3 -3 4
-12 1 -19z m2700 16 c-3 -3 -12 -4 -19 -1 -8 3 -5 6 6 6 11 1 17 -2 13 -5z
m5963 -14 c0 -5 -5 -10 -11 -10 -5 0 -7 5 -4 10 3 6 8 10 11 10 2 0 4 -4 4
-10z m-7861 -27 c-7 -10 -25 -32 -39 -50 -59 -74 -71 -90 -92 -130 -13 -24
-27 -43 -31 -43 -5 0 -5 6 -1 13 23 38 106 156 128 181 14 16 26 33 26 38 0 4
5 8 11 8 8 0 7 -6 -2 -17z m-779 -23 c12 -23 12 -24 -3 -11 -10 7 -17 20 -17
29 0 18 3 16 20 -18z m8621 -23 c-10 -9 -11 -8 -5 6 3 10 9 15 12 12 3 -3 0
-11 -7 -18z m-761 -2 c7 -9 8 -15 2 -15 -5 0 -12 7 -16 15 -3 8 -4 15 -2 15 2
0 9 -7 16 -15z m-7830 -51 c21 -49 26 -71 9 -41 -16 27 -40 87 -35 87 3 0 14
-21 26 -46z m8264 0 c5 -14 4 -15 -9 -4 -17 14 -19 20 -6 20 5 0 12 -7 15 -16z
m292 -36 c-28 -46 -61 -88 -69 -88 -3 0 15 31 41 69 52 76 69 88 28 19z
m-8317 -27 c-33 -51 -51 -70 -27 -28 34 58 53 85 56 82 2 -2 -11 -27 -29 -54z
m7641 44 c7 -9 8 -15 2 -15 -5 0 -12 7 -16 15 -3 8 -4 15 -2 15 2 0 9 -7 16
-15z m476 -113 c14 -18 36 -37 47 -42 21 -8 21 -9 2 -9 -11 -1 -31 13 -45 30
-14 17 -31 37 -37 44 -7 8 -13 18 -13 23 0 5 -9 17 -20 27 -11 10 -20 23 -20
28 0 5 14 -8 30 -29 17 -22 42 -54 56 -72z m-452 72 c3 -8 2 -12 -4 -9 -6 3
-10 10 -10 16 0 14 7 11 14 -7z m-7864 -19 c7 -9 8 -15 2 -15 -5 0 -12 7 -16
15 -3 8 -4 15 -2 15 2 0 9 -7 16 -15z m5096 -33 c-17 -16 -18 -16 -5 5 7 12
15 20 18 17 3 -2 -3 -12 -13 -22z m-5046 -47 c0 -11 -14 7 -31 40 -7 13 -3 12
10 -5 11 -14 21 -29 21 -35z m7854 39 c9 -24 2 -26 -12 -4 -7 11 -8 20 -3 20
5 0 12 -7 15 -16z m-7777 -41 c-36 -37 -37 -37 -54 -18 -16 17 -16 18 -1 6 15
-11 21 -9 45 17 15 16 32 30 38 31 5 0 -7 -16 -28 -36z m413 18 c0 -5 -9 -19
-21 -32 l-20 -24 17 33 c19 33 24 38 24 23z m7390 -21 c0 -5 -2 -10 -4 -10 -3
0 -8 5 -11 10 -3 6 -1 10 4 10 6 0 11 -4 11 -10z m18 -45 c-3 -3 -9 2 -12 12
-6 14 -5 15 5 6 7 -7 10 -15 7 -18z m-7457 -32 c-10 -21 -25 -58 -32 -83 -7
-25 -17 -49 -22 -55 -12 -13 -2 20 31 108 15 37 30 67 34 67 5 0 0 -17 -11
-37z m4546 7 c-7 -17 -13 -26 -15 -21 -3 10 15 51 22 51 3 0 -1 -14 -7 -30z
m-1522 1 c3 -5 2 -12 -3 -15 -5 -3 -9 1 -9 9 0 17 3 19 12 6z m4459 -27 c3 -8
2 -12 -4 -9 -6 3 -10 10 -10 16 0 14 7 11 14 -7z m25 -54 c11 -24 11 -24 -3
-6 -9 11 -16 24 -16 30 0 12 5 7 19 -24z m19 -55 c-3 -3 -9 2 -12 12 -6 14 -5
15 5 6 7 -7 10 -15 7 -18z m21 -55 c0 -10 -3 -8 -9 5 -12 27 -12 43 0 25 5 -8
9 -22 9 -30z m-7614 -22 c-7 -25 -11 -48 -9 -51 3 -3 1 -8 -5 -11 -6 -4 -8 3
-6 16 15 79 23 103 31 96 2 -2 -3 -25 -11 -50z m7630 -25 c2 -10 4 -18 5 -18
2 0 3 -4 14 -60 6 -28 6 -28 -4 -6 -6 14 -12 34 -15 45 -2 12 -4 21 -5 21 -1
0 -4 11 -6 24 -2 14 -2 22 2 19 3 -3 7 -14 9 -25z m-7649 -79 c-4 -9 -9 -15
-11 -12 -3 3 -3 13 1 22 4 9 9 15 11 12 3 -3 3 -13 -1 -22z m-9 -46 c-3 -8 -6
-5 -6 6 -1 11 2 17 5 13 3 -3 4 -12 1 -19z m7690 -25 c1 -33 0 -35 -7 -13 -11
34 -12 50 -2 50 4 0 8 -17 9 -37z m-7694 -18 c-7 -21 -12 -19 -10 4 0 11 5 18
9 15 4 -3 5 -11 1 -19z m1895 -20 c-3 -3 -9 2 -12 12 -6 14 -5 15 5 6 7 -7 10
-15 7 -18z m-1901 -37 c-3 -7 -5 -2 -5 12 0 14 2 19 5 13 2 -7 2 -19 0 -25z
m7714 5 c0 -16 3 -69 5 -119 3 -51 2 -94 -3 -97 -4 -3 -8 27 -8 66 0 40 -2 96
-6 125 -3 28 -1 52 3 52 4 0 8 -12 9 -27z m-7711 -64 c0 -5 -4 -9 -8 -9 -5 0
-9 7 -9 15 0 8 4 12 9 9 4 -3 8 -9 8 -15z m-7 -114 c-7 -21 -12 -19 -10 4 0
11 5 18 9 15 4 -3 5 -11 1 -19z m2877 1 c0 -2 -8 -10 -17 -17 -16 -13 -17 -12
-4 4 13 16 21 21 21 13z m4846 -78 c-15 -72 -26 -160 -21 -168 4 -6 2 -10 -3
-10 -5 0 -12 -18 -16 -40 -18 -111 -162 -447 -183 -426 -3 3 8 27 25 54 93
152 174 412 181 585 0 15 6 27 11 27 6 0 8 -10 6 -22z m-7719 -55 c-3 -10 -5
-4 -5 12 0 17 2 24 5 18 2 -7 2 -21 0 -30z m8 -53 c2 -12 1 -20 -2 -16 -4 4
-8 16 -10 28 -4 28 6 18 12 -12z m5 -40 c0 -5 -2 -10 -4 -10 -3 0 -8 5 -11 10
-3 6 -1 10 4 10 6 0 11 -4 11 -10z m10 -46 c0 -8 -4 -12 -10 -9 -5 3 -10 13
-10 21 0 8 5 12 10 9 6 -3 10 -13 10 -21z m14 -89 c5 -21 4 -27 -3 -20 -6 6
-13 28 -16 50 -5 43 6 25 19 -30z m53 -175 c32 -83 96 -210 106 -210 4 0 7 -5
7 -10 0 -6 9 -20 20 -32 11 -12 20 -28 20 -36 0 -17 -52 58 -99 142 -37 66
-111 252 -110 275 0 9 7 -2 15 -24 9 -22 27 -69 41 -105z m4460 -46 c-3 -3
-12 -4 -19 -1 -8 3 -5 6 6 6 11 1 17 -2 13 -5z m40 0 c-3 -3 -12 -4 -19 -1 -8
3 -5 6 6 6 11 1 17 -2 13 -5z m-1787 -144 c0 -5 -5 -10 -11 -10 -5 0 -7 5 -4
10 3 6 8 10 11 10 2 0 4 -4 4 -10z m4675 -37 c-39 -60 -161 -212 -175 -218 -8
-3 -1 9 16 27 42 45 134 167 147 195 6 13 15 23 20 23 5 0 1 -12 -8 -27z
m-7170 -138 c16 -22 80 -91 142 -153 62 -62 113 -115 113 -118 0 -2 -8 4 -18
14 -10 9 -38 36 -63 58 -90 84 -229 241 -229 258 0 10 19 -10 55 -59z m4912
-107 c-3 -8 -6 -5 -6 6 -1 11 2 17 5 13 3 -3 4 -12 1 -19z m2073 9 c0 -1 -42
-43 -92 -92 l-93 -90 90 93 c83 85 95 97 95 89z m-6700 -185 c0 -4 23 -25 51
-47 28 -22 63 -50 77 -63 33 -28 38 -32 82 -62 19 -14 37 -28 40 -31 14 -15
286 -182 367 -225 51 -27 93 -52 93 -56 0 -6 -76 31 -162 80 -61 36 -181 109
-202 125 -6 4 -45 31 -86 59 -70 48 -280 216 -280 224 0 2 5 4 10 4 6 0 10 -3
10 -8z m6503 -7 c-3 -9 -8 -14 -10 -11 -3 3 -2 9 2 15 9 16 15 13 8 -4z m-23
-18 c0 -2 -10 -12 -22 -23 l-23 -19 19 23 c18 21 26 27 26 19z m-50 -40 c0 -2
-12 -14 -27 -28 l-28 -24 24 28 c23 25 31 32 31 24z m-60 -51 c0 -3 -31 -27
-70 -55 -38 -28 -70 -48 -70 -44 1 5 31 29 68 55 72 50 72 50 72 44z m-150
-109 c0 -2 -20 -18 -45 -36 -25 -18 -45 -29 -45 -24 1 4 20 20 43 35 43 28 47
30 47 25z m-101 -71 c-16 -15 -139 -84 -139 -78 1 7 119 79 134 81 5 1 7 -1 5
-3z m-3009 -51 c0 -2 -9 -3 -19 -2 -11 0 -18 5 -15 9 4 6 34 0 34 -7z m80 9
c0 -8 -19 -13 -24 -6 -3 5 1 9 9 9 8 0 15 -2 15 -3z m70 0 c0 -8 -19 -13 -24
-6 -3 5 1 9 9 9 8 0 15 -2 15 -3z m94 -5 c-4 -7 -44 0 -44 7 0 2 11 3 24 2 14
-1 23 -5 20 -9z m76 -3 c-7 -7 -13 -7 -20 0 -6 6 -3 10 10 10 13 0 16 -4 10
-10z m85 5 c-9 -8 -36 -10 -30 -2 2 4 11 8 20 8 8 0 13 -3 10 -6z m-518 -7
c-2 -2 -14 -6 -26 -9 -11 -2 -26 -7 -31 -10 -6 -3 -10 -2 -10 4 0 9 17 15 54
18 10 1 16 0 13 -3z m40 0 c-3 -3 -12 -4 -19 -1 -8 3 -5 6 6 6 11 1 17 -2 13
-5z m596 -1 c-7 -2 -19 -2 -25 0 -7 3 -2 5 12 5 14 0 19 -2 13 -5z m63 -11
c-16 -2 -32 0 -37 5 -5 5 7 7 29 4 34 -5 35 -6 8 -9z m-796 4 c0 -2 -7 -6 -15
-10 -8 -3 -15 -1 -15 4 0 6 7 10 15 10 8 0 15 -2 15 -4z m864 -8 c-3 -4 -11
-5 -19 -1 -21 7 -19 12 4 10 11 0 18 -5 15 -9z m-960 -7 c-8 -8 -43 -8 -38 0
2 4 13 7 24 6 10 -1 17 -3 14 -6z m1049 2 c-7 -2 -21 -2 -30 0 -10 3 -4 5 12
5 17 0 24 -2 18 -5z m47 1 c0 -8 -19 -13 -24 -6 -3 5 1 9 9 9 8 0 15 -2 15 -3z
m-1185 -13 c-9 -8 -36 -10 -30 -2 2 4 11 8 20 8 8 0 13 -3 10 -6z m1222 3 c-3
-3 -12 -4 -19 -1 -8 3 -5 6 6 6 11 1 17 -2 13 -5z m82 -10 c2 -2 -13 -3 -33
-2 -20 1 -36 5 -36 9 0 7 61 1 69 -7z m1946 -3 c-19 -17 -125 -71 -125 -64 0
4 29 22 63 40 66 34 77 38 62 24z m-3375 -11 c0 -5 -10 -10 -22 -9 -22 0 -22
1 -3 9 11 5 21 9 23 9 1 1 2 -3 2 -9z m1527 -4 c3 -3 -14 -3 -38 0 -57 8 -67
18 -11 11 23 -2 46 -7 49 -11z m-1583 -4 c2 -4 -7 -8 -22 -9 -24 -2 -24 -1 -7
7 11 5 21 9 22 9 1 1 4 -3 7 -7z m1621 -10 c-3 -3 -11 0 -18 7 -9 10 -8 11 6
5 10 -3 15 -9 12 -12z m35 -2 c0 -5 -2 -10 -4 -10 -3 0 -8 5 -11 10 -3 6 -1
10 4 10 6 0 11 -4 11 -10z m-1750 -10 c-8 -5 -19 -10 -25 -10 -5 0 -3 5 5 10
8 5 20 10 25 10 6 0 3 -5 -5 -10z m1821 -8 c-7 -2 -18 1 -23 6 -8 8 -4 9 13 5
13 -4 18 -8 10 -11z m55 -10 c-10 -2 -22 0 -28 6 -6 6 0 7 19 4 21 -5 23 -7 9
-10z m-1923 1 c-7 -2 -19 -2 -25 0 -7 3 -2 5 12 5 14 0 19 -2 13 -5z m-58 -13
c-27 -12 -43 -12 -25 0 8 5 22 9 30 9 10 0 8 -3 -5 -9z m3494 -4 c-6 -5 -252
-123 -269 -129 -8 -3 -50 -21 -92 -41 -43 -19 -78 -31 -78 -26 0 6 5 10 11 10
14 0 345 152 389 178 19 12 36 19 39 17 2 -3 2 -7 0 -9z m-3539 -5 c0 -5 -10
-11 -22 -14 -22 -6 -22 -6 -4 8 23 17 26 18 26 6z m-60 -21 c-8 -5 -19 -10
-25 -10 -5 0 -3 5 5 10 8 5 20 10 25 10 6 0 3 -5 -5 -10z m-1465 -12 c14 -6
25 -16 25 -22 0 -6 -5 -5 -12 2 -7 7 -20 12 -29 12 -10 0 -21 5 -24 10 -8 13
8 13 40 -2z m1420 2 c-3 -5 -14 -10 -23 -9 -14 0 -13 2 3 9 27 11 27 11 20 0z
m-1255 -82 c41 -19 107 -47 145 -62 98 -40 132 -56 119 -56 -19 0 -321 126
-338 141 -6 5 -18 9 -27 9 -9 0 -19 7 -23 15 -5 13 -2 14 22 1 15 -8 61 -29
102 -48z m4450 -88 c0 -5 -8 -10 -17 -10 -15 0 -16 2 -3 10 19 12 20 12 20 0z
m-40 -14 c0 -2 -7 -7 -16 -10 -8 -3 -12 -2 -9 4 6 10 25 14 25 6z m-4062 -37
c23 -6 42 -15 42 -19 0 -9 -98 24 -109 36 -3 4 1 4 9 1 8 -3 34 -11 58 -18z
m3998 12 c-6 -9 -46 -22 -46 -15 0 3 10 9 23 14 29 11 29 11 23 1z m-70 -26
c-11 -8 -27 -15 -35 -15 -9 1 -2 7 14 15 39 18 44 18 21 0z m-3846 -15 c8 -5
12 -11 10 -14 -3 -2 -14 2 -24 10 -22 15 -10 19 14 4z m45 -20 c3 -6 -1 -7 -9
-4 -18 7 -21 14 -7 14 6 0 13 -4 16 -10z m45 -10 c13 -8 13 -10 -2 -10 -9 0
-20 5 -23 10 -8 13 5 13 25 0z m3585 -10 c-3 -5 -12 -10 -18 -10 -7 0 -6 4 3
10 19 12 23 12 15 0z m-3495 -16 c0 -2 -11 -4 -25 -4 -14 0 -25 4 -25 9 0 4
11 6 25 3 14 -2 25 -6 25 -8z m3457 0 c-3 -3 -12 -4 -19 -1 -8 3 -5 6 6 6 11
1 17 -2 13 -5z m-3427 -14 c0 -5 -2 -10 -4 -10 -3 0 -8 5 -11 10 -3 6 -1 10 4
10 6 0 11 -4 11 -10z m3360 0 c0 -5 -5 -10 -11 -10 -5 0 -7 5 -4 10 3 6 8 10
11 10 2 0 4 -4 4 -10z m-3302 -15 c3 -3 -4 -4 -16 -2 -12 2 -24 6 -28 10 -4 3
4 4 16 2 12 -2 25 -7 28 -10z m39 -11 c-3 -3 -12 -4 -19 -1 -8 3 -5 6 6 6 11
1 17 -2 13 -5z m3163 -4 c-8 -5 -19 -10 -25 -10 -5 0 -3 5 5 10 8 5 20 10 25
10 6 0 3 -5 -5 -10z m-3116 -9 c4 -5 -3 -7 -14 -4 -23 6 -26 13 -6 13 8 0 17
-4 20 -9z m3076 1 c0 -5 -6 -9 -12 -10 -7 0 -26 -3 -43 -7 -16 -3 -27 -4 -24
0 4 3 17 8 29 10 12 2 25 7 28 10 8 8 22 6 22 -3z m-2965 -33 c5 -5 -6 -4 -25
2 -45 15 -54 24 -15 15 17 -4 34 -12 40 -17z m2850 2 c-9 -8 -36 -10 -30 -2 2
4 11 8 20 8 8 0 13 -3 10 -6z m-2790 -11 c3 -5 1 -10 -4 -10 -6 0 -11 5 -11
10 0 6 2 10 4 10 3 0 8 -4 11 -10z m2715 0 c0 -5 -5 -10 -11 -10 -5 0 -7 5 -4
10 3 6 8 10 11 10 2 0 4 -4 4 -10z m-30 -8 c0 -5 -6 -9 -13 -9 -7 0 -25 -3
-40 -7 -38 -9 -34 1 6 13 42 12 47 12 47 3z m-2573 -18 c-3 -3 -12 -4 -19 -1
-8 3 -5 6 6 6 11 1 17 -2 13 -5z m2478 -3 c-9 -8 -36 -10 -30 -2 2 4 11 8 20
8 8 0 13 -3 10 -6z m-2438 -7 c-3 -3 -12 -4 -19 -1 -8 3 -5 6 6 6 11 1 17 -2
13 -5z m2313 -14 c-14 -4 -36 -8 -50 -8 -22 0 -22 1 5 8 17 4 39 8 50 8 16 0
15 -2 -5 -8z m-2203 -6 c-3 -3 -12 -4 -19 -1 -8 3 -5 6 6 6 11 1 17 -2 13 -5z
m2113 -4 c-8 -5 -22 -9 -30 -9 -10 0 -8 3 5 9 27 12 43 12 25 0z m-1943 -26
c-3 -3 -12 -4 -19 -1 -8 3 -5 6 6 6 11 1 17 -2 13 -5z m40 0 c-3 -3 -12 -4
-19 -1 -8 3 -5 6 6 6 11 1 17 -2 13 -5z m1726 -1 c-7 -2 -19 -2 -25 0 -7 3 -2
5 12 5 14 0 19 -2 13 -5z m-1688 -13 c3 -6 -1 -7 -9 -4 -18 7 -21 14 -7 14 6
0 13 -4 16 -10z m52 -6 c-3 -3 -12 -4 -19 -1 -8 3 -5 6 6 6 11 1 17 -2 13 -5z
m70 -10 c-3 -3 -12 -4 -19 -1 -8 3 -5 6 6 6 11 1 17 -2 13 -5z m57 -3 c3 -4
-6 -6 -19 -3 -14 2 -25 6 -25 8 0 8 39 4 44 -5z m1132 2 c-17 -18 -779 -36
-886 -22 -49 7 -49 7 404 14 142 2 260 6 261 7 2 2 53 3 114 4 61 0 109 -1
107 -3z m41 1 c-3 -3 -12 -4 -19 -1 -8 3 -5 6 6 6 11 1 17 -2 13 -5z m40 0
c-3 -3 -12 -4 -19 -1 -8 3 -5 6 6 6 11 1 17 -2 13 -5z m40 0 c-3 -3 -12 -4
-19 -1 -8 3 -5 6 6 6 11 1 17 -2 13 -5z m-1122 -14 c3 -5 1 -10 -4 -10 -6 0
-11 5 -11 10 0 6 2 10 4 10 3 0 8 -4 11 -10z m60 0 c3 -5 1 -10 -4 -10 -6 0
-11 5 -11 10 0 6 2 10 4 10 3 0 8 -4 11 -10z"/>
</g>
</svg>
