<?xml version="1.0" encoding="UTF-8" standalone="no"?>
<!-- Created with Inkscape (http://www.inkscape.org/) -->

<svg
   xmlns:dc="http://purl.org/dc/elements/1.1/"
   xmlns:cc="http://creativecommons.org/ns#"
   xmlns:rdf="http://www.w3.org/1999/02/22-rdf-syntax-ns#"
   xmlns:svg="http://www.w3.org/2000/svg"
   xmlns="http://www.w3.org/2000/svg"
   xmlns:sodipodi="http://sodipodi.sourceforge.net/DTD/sodipodi-0.dtd"
   xmlns:inkscape="http://www.inkscape.org/namespaces/inkscape"
   width="132.80215mm"
   height="100mm"
   viewBox="0 0 132.80215 100"
   version="1.1"
   id="svg8"
   sodipodi:docname="drawing.svg"
   inkscape:version="0.92.3 (3ce5693, 2018-03-11)"
   inkscape:export-filename="C:\Users\Calderdale NUT\Downloads\drawing.svg.png"
   inkscape:export-xdpi="96"
   inkscape:export-ydpi="96">
  <defs
     id="defs2" />
  <sodipodi:namedview
     id="base"
     pagecolor="#ffffff"
     bordercolor="#666666"
     borderopacity="1.0"
     inkscape:pageopacity="0.0"
     inkscape:pageshadow="2"
     inkscape:zoom="1.4"
     inkscape:cx="855.25443"
     inkscape:cy="380.03768"
     inkscape:document-units="mm"
     inkscape:current-layer="layer1"
     showgrid="false"
     inkscape:window-width="3200"
     inkscape:window-height="1689"
     inkscape:window-x="0"
     inkscape:window-y="55"
     inkscape:window-maximized="1"
     inkscape:pagecheckerboard="true"
     fit-margin-top="0"
     fit-margin-left="0"
     fit-margin-right="0"
     fit-margin-bottom="0" />
  <metadata
     id="metadata5">
    <rdf:RDF>
      <cc:Work
         rdf:about="">
        <dc:format>image/svg+xml</dc:format>
        <dc:type
           rdf:resource="http://purl.org/dc/dcmitype/StillImage" />
        <dc:title />
      </cc:Work>
    </rdf:RDF>
  </metadata>
  <g
     inkscape:label="Layer 1"
     inkscape:groupmode="layer"
     id="layer1"
     transform="translate(-61.736281,-138.77756)">
    <ellipse
       style="fill:none;stroke-width:0.26458332"
       id="path815"
       cx="114.52679"
       cy="125.02083"
       rx="35.151787"
       ry="38.175598" />
    <path
       style="fill:#000000;fill-opacity:1;stroke:#000000;stroke-width:0.15310687;stroke-miterlimit:4;stroke-dasharray:none;stroke-opacity:1"
       d="m 148.02777,222.75685 c 0,7.59252 -0.63841,1.45699 -19.07963,1.45699 -18.44122,0 -20.63178,7.37208 -20.63178,-0.22044 0,-7.59253 2.10081,-13.42936 20.54202,-13.42936 18.44122,0 19.16939,4.60028 19.16939,12.19281 z"
       id="path837"
       inkscape:connector-curvature="0"
       sodipodi:nodetypes="sssss" />
    <path
       style="fill:#000000;stroke-width:2.98574281"
       d="m 559.25781,709.64453 c -3.47545,0.21288 -7.03235,0.95156 -10.58593,2.29688 -28.09595,10.63661 -31.36965,44.18371 -5.55079,56.87695 18.5867,9.13769 40.26411,2.94912 49.15821,-14.0332 11.70768,-22.35472 -8.69331,-46.63075 -33.02149,-45.14063 z"
       id="path4575"
       transform="scale(0.26458333)"
       inkscape:connector-curvature="0" />
    <path
       style="fill:#000000;stroke-width:2.98574281"
       d="m 527.14258,527.16602 c -1.8873,-0.32882 -5.93178,-1.14608 -6.33594,-1.14454 -1.98191,0.008 -8.37096,12.47797 -14.19922,27.71094 -5.82829,15.23286 -14.69253,38.01688 -19.69726,50.63086 l -9.09961,22.9336 -31.61719,3.36132 c -33.14309,3.52332 -79.58884,16.00587 -102.35938,27.50977 l -13.39648,6.76758 -13.26562,-5.45508 c -23.60376,-9.7084 -53.10796,-5.18044 -68.82032,10.5625 -7.66003,7.67501 -15.01758,24.83075 -15.01758,35.01367 0,11.15868 7.70592,27.86242 17.04688,36.94727 5.83872,5.67866 7.61214,11.24795 8.82812,27.73632 4.91224,66.60877 85.49749,121.86161 191.42774,131.25196 120.56791,10.68797 231.39566,-37.78725 254.75,-111.42578 2.85812,-9.0118 4.79124,-21.46151 4.29687,-27.66602 -0.74819,-9.39008 0.75821,-12.8373 8.98243,-20.5625 16.95394,-15.92549 21.0332,-35.23981 11.71289,-55.45117 -6.22575,-13.50066 -12.82654,-19.95811 -27.20118,-26.60547 -15.10488,-6.98517 -35.62352,-6.84356 -51.19921,0.35156 l -12.41016,5.73242 -19.43555,-8.66992 c -29.4503,-13.1365 -51.74758,-19.31168 -88.94531,-24.63476 l -33.81836,-4.83985 15.42578,-39.72851 c 6.49313,-16.72451 11.50059,-28.84339 14.34766,-35.20508 z M 494.3457,645.99023 c 55.4945,1.21318 104.14334,14.43953 142.58203,38.89844 46.94351,29.87048 64.42855,69.90711 47.9043,109.69336 -15.25674,36.73433 -66.8606,70.36926 -128.41992,83.70313 -30.86056,6.68447 -83.83966,9.43698 -112.13672,5.82617 -53.271,-6.7976 -98.90356,-24.62309 -130.16797,-50.84961 -26.59295,-22.30772 -35.08646,-38.49686 -35.20117,-67.09961 -0.11523,-28.65804 7.70433,-44.46867 33.2793,-67.29297 34.96936,-31.20839 91.56124,-50.07367 157.96875,-52.66016 8.1974,-0.31928 16.26362,-0.39206 24.1914,-0.21875 z m -202.35547,25.00586 c 20.66061,0.0754 21.13008,3.04798 3.19727,20.23047 -9.039,8.66071 -19.24245,21.05566 -22.67578,27.54492 -3.43333,6.4893 -7.26611,11.81692 -8.51563,11.83204 -4.12863,0.0593 -11.84179,-16.58207 -11.84179,-25.54688 0,-19.9259 16.63026,-34.14521 39.83593,-34.06055 z m 384.55665,0 c 24.15208,-0.0882 39.83593,14.13832 39.83593,36.13086 0,5.98243 -2.19727,13.71926 -4.88281,17.19336 -2.68558,3.47407 -5.86348,6.31641 -7.0625,6.31641 -1.19909,0 -5.67407,-5.96869 -9.94531,-13.26367 -4.27117,-7.29502 -14.60887,-19.62993 -22.97266,-27.41016 -16.8223,-15.6486 -15.96321,-18.88629 5.02735,-18.9668 z M 410.26172,709.1582 c -1.39436,0.0637 -2.6931,0.25513 -3.85938,0.58985 -20.09314,5.7665 -28.78125,15.9755 -28.78125,33.82031 0,8.00685 2.43173,12.57607 10.66407,20.03516 8.74284,7.9217 13.03973,9.66406 23.83984,9.66406 10.80004,0 15.09497,-1.74236 23.83789,-9.66406 8.73936,-7.91845 10.66602,-11.81446 10.66602,-21.58594 0,-7.45251 -2.40484,-14.98346 -6.41016,-20.08008 -5.79521,-7.37417 -20.19651,-13.22547 -29.95703,-12.7793 z"
       id="path4573"
       transform="scale(0.26458333)"
       inkscape:connector-curvature="0" />
    <g
       id="g4585"
       transform="translate(-14.117761,14.222341)">
      <path
         inkscape:connector-curvature="0"
         id="path864"
         d="m 153.5909,125.257 -4.81802,4.57869 c 0.53301,-0.18803 1.55082,-0.58181 1.623,-0.5764 0.95115,0.0712 11.87512,18.10151 11.44698,18.89355 -0.22185,0.41037 -0.90922,1.52696 -1.52714,2.48139 -1.61648,2.49688 -1.24103,8.08257 0.7801,11.60743 1.4187,2.47417 2.36497,3.35903 5.11182,4.78115 6.79542,3.51819 13.28032,1.37942 15.72728,-5.18721 1.74306,-4.67757 0.72525,-8.60803 -3.33649,-12.8879 -2.8698,-3.02417 -3.3996,-3.26388 -7.95707,-3.60499 l -4.88252,-0.36524 -6.22173,-10.22799 c -2.72423,-4.47812 -4.84955,-7.84549 -5.94621,-9.49248 z m 22.70444,27.34651 c 0.38493,0.4817 0.73171,1.01905 1.0311,1.60936 2.76763,5.45698 -1.87595,11.30168 -7.55341,9.50721 -3.97389,-1.25599 -5.40101,-3.00795 -5.72036,-7.02235 -0.21883,-2.75097 0.1354,-3.78844 1.79855,-5.27295 3.19077,-2.8478 7.7497,-2.19316 10.44412,1.17873 z"
         style="fill:#000000;stroke-width:0.78997779" />
      <path
         transform="scale(0.26458333)"
         inkscape:connector-curvature="0"
         id="path4577"
         d="m 645.77612,619.25849 c -7.40455,-1.02645 -16.47298,-5.74407 -20.04585,-10.42834 -1.06765,-1.39977 -2.57303,-4.19459 -3.34529,-6.21072 -1.84094,-4.8061 -2.53869,-16.92621 -1.24122,-21.5603 1.27716,-4.56157 6.44874,-9.73628 12.65003,-12.6577 4.18247,-1.97036 5.61524,-2.27987 10.55376,-2.27987 4.93827,0 6.37136,0.30954 10.55274,2.27939 11.90244,5.60723 19.81815,19.48277 17.65859,30.95395 -1.59932,8.4953 -6.47708,14.90086 -13.83989,18.1748 -4.30348,1.91357 -8.02451,2.4106 -12.94287,1.72879 z"
         style="fill:#ffffff;fill-opacity:1;stroke:none;stroke-width:0.71541053;stroke-miterlimit:4;stroke-dasharray:none;stroke-opacity:1" />
    </g>
    <path
       style="fill:#00d1b2;fill-opacity:1;stroke:none;stroke-width:0.71541053;stroke-miterlimit:4;stroke-dasharray:none;stroke-opacity:1"
       d="m 451.49041,884.5702 c -62.16156,-6.49445 -115.81959,-29.00146 -149.07685,-62.53067 -14.75266,-14.87329 -21.01653,-27.982 -22.75245,-47.61512 -1.45053,-16.40542 0.8341,-31.76382 6.45131,-43.36896 9.69442,-20.02864 35.52763,-42.83296 64.6637,-57.082 27.31857,-13.36018 57.80549,-21.59255 95.35714,-25.74923 14.0286,-1.55286 50.81465,-2.19157 65,-1.12859 11.4091,0.85494 23.51844,2.27424 32.81472,3.84611 l 5.31471,0.89864 2.24197,6.47689 c 4.30143,12.42649 10.08027,19.6467 20.38675,25.47168 8.32949,4.70763 15.86324,7.03111 24.24503,7.47742 11.26716,0.59994 20.1594,-2.28108 27.11144,-8.78389 l 3.55056,-3.32114 6.87022,4.18192 c 16.29146,9.91665 32.561,24.29915 41.20731,36.42782 11.33865,15.90536 16.15867,31.38277 15.31659,49.18267 -1.6266,34.38324 -27.62647,65.20422 -74.41644,88.21534 -30.11552,14.8107 -56.67965,22.03369 -96.07143,26.12256 -10.54068,1.09413 -60.9382,2.03874 -68.21428,1.27855 z m -26.64863,-26.98872 c 4.44246,-1.34404 10.71259,-3.11455 13.93363,-3.93448 28.63985,-7.2904 68.25487,-7.42914 99.14357,-0.34724 15.52498,3.55944 16.89608,3.79095 18.6044,3.14145 3.02413,-1.14977 3.42961,-3.0853 3.36422,-16.05889 -0.0845,-16.76283 -1.78381,-23.57529 -7.50872,-30.10172 -5.13731,-5.85656 -15.60572,-10.42773 -29.10276,-12.70809 -11.79103,-1.99213 -34.83898,-2.8865 -50.03821,-1.9417 -28.19632,1.7527 -43.55099,6.42273 -53.35618,16.22792 -8.1977,8.19769 -11.20923,18.0451 -10.78087,35.25233 0.35813,14.38584 1.1213,14.89348 15.74092,10.47042 z m 1.54801,-86.73918 c 5.91198,-2.91046 15.12203,-11.44791 17.94485,-16.63435 1.66992,-3.06821 2.13118,-4.92532 2.37444,-9.55995 0.90199,-17.18519 -7.27777,-28.61903 -24.14724,-33.75352 -10.08292,-3.0689 -15.67691,-2.62207 -25.70395,2.05313 -13.83678,6.45154 -19.78659,16.14432 -19.18003,31.24601 0.23787,5.92202 0.55754,7.42228 2.16658,10.16789 2.54924,4.34995 12.50278,13.74033 16.95671,15.9973 5.34155,2.70677 8.13382,3.19924 16.93459,2.98674 7.3286,-0.17696 8.33177,-0.37541 12.65405,-2.50325 z m 146.52919,0.48346 c 15.28619,-5.0353 25.22458,-20.30187 22.57553,-34.67877 -3.4451,-18.69726 -23.58377,-31.10512 -42.60403,-26.24923 -11.05954,2.82352 -20.42461,10.14599 -24.80529,19.39508 -2.14733,4.53372 -2.30907,5.40157 -2.30907,12.39022 0,7.02395 0.15062,7.82095 2.3049,12.19693 7.40216,15.03592 27.53584,22.64512 44.83796,16.94577 z"
       id="path4587"
       inkscape:connector-curvature="0"
       transform="scale(0.26458333)" />
    <path
       style="fill:#ffffff;fill-opacity:1;stroke:none;stroke-width:0.71541053;stroke-miterlimit:4;stroke-dasharray:none;stroke-opacity:1"
       d="m 260.89237,727.70375 c -4.33712,-5.77919 -8.33053,-16.78597 -8.33053,-22.96088 0,-4.30128 1.54943,-10.75703 3.49473,-14.56091 3.50651,-6.8567 11.37386,-13.26641 20.11891,-16.39134 4.88639,-1.7461 6.2364,-1.90247 16.7435,-1.93948 12.41301,-0.0437 14.64286,0.48318 14.64286,3.45999 0,2.24011 -1.51479,4.10617 -12.81964,15.79248 -11.318,11.69989 -17.66993,19.45834 -22.30408,27.24289 -4.63045,7.77832 -7.56039,11.67868 -8.77298,11.67868 -0.56683,0 -1.81458,-1.04464 -2.77277,-2.32143 z"
       id="path4589"
       inkscape:connector-curvature="0"
       transform="scale(0.26458333)" />
    <path
       style="fill:#ccffff;fill-opacity:1;stroke:none;stroke-width:0.71541053;stroke-miterlimit:4;stroke-dasharray:none;stroke-opacity:1"
       d="m 701.07826,726.63232 c -1.37653,-1.86607 -3.90244,-5.64286 -5.61313,-8.39286 -5.19389,-8.34938 -11.98169,-16.55635 -23.38587,-28.27529 -10.28997,-10.57398 -12.37259,-13.48104 -11.42564,-15.94874 1.20691,-3.14518 22.50649,-3.38298 31.55107,-0.35225 10.33096,3.46178 18.54309,11.39269 21.86809,21.11923 2.3261,6.80449 2.33913,16.50109 0.0312,23.2488 -1.69776,4.96383 -7.24371,11.99397 -9.46183,11.99397 -0.58362,0 -2.18739,-1.52679 -3.56393,-3.39286 z"
       id="path4591"
       inkscape:connector-curvature="0"
       transform="scale(0.26458333)" />
    <path
       style="fill:#00d1b2;fill-opacity:1;stroke:none;stroke-width:0.71541053;stroke-miterlimit:4;stroke-dasharray:none;stroke-opacity:1"
       d="m 702.43073,728.06089 c -1.00483,-1.08035 -4.16371,-5.5 -7.01975,-9.82143 -6.66044,-10.07782 -11.33209,-15.76171 -22.86687,-27.82156 -12.80338,-13.3862 -14.14374,-15.79623 -9.8037,-17.62749 3.12306,-1.31776 20.89757,-1.30552 26.25,0.0181 17.83799,4.41113 29.1745,21.04274 26.46326,38.82384 -0.43429,2.84822 -1.61909,6.88937 -2.63288,8.98035 -1.82932,3.77302 -6.54573,9.41251 -7.87186,9.41251 -0.38019,0 -1.51338,-0.88393 -2.5182,-1.96429 z"
       id="path4593"
       inkscape:connector-curvature="0"
       transform="scale(0.26458333)" />
    <path
       style="fill:#00d0b1;fill-opacity:1;stroke:none;stroke-width:0.71541053;stroke-miterlimit:4;stroke-dasharray:none;stroke-opacity:1"
       d="m 590.06184,672.63487 c -4.56861,-1.18233 -9.96573,-3.58809 -13.45502,-5.99756 -6.21456,-4.29137 -8.80697,-11.45628 -9.1609,-25.31887 -0.19882,-7.7873 0.68876,-9.87542 6.29543,-14.81061 10.49565,-9.23863 24.49654,-8.99401 35.39573,0.61844 6.65534,5.86961 11.17303,16.33239 10.34341,23.9549 -0.8235,7.56637 -7.81072,17.40442 -14.5307,20.45935 -3.89086,1.76879 -10.42574,2.24914 -14.88795,1.09435 z"
       id="path4595"
       inkscape:connector-curvature="0"
       transform="scale(0.26458333)" />
    <path
       style="fill:#00d1b2;fill-opacity:0;stroke:none;stroke-width:0.71541053;stroke-miterlimit:4;stroke-dasharray:none;stroke-opacity:1"
       d="m 450.77612,884.57641 c -25.36893,-2.58954 -56.84696,-10.08544 -79.28571,-18.88041 -39.2854,-15.39808 -73.18893,-41.21507 -84.90761,-64.65576 -5.83681,-11.6753 -8.41418,-27.92161 -6.9811,-44.00513 1.86686,-20.952 8.3117,-33.95943 25.05159,-50.56089 26.70547,-26.48465 62.3365,-43.89539 108.97997,-53.25197 23.8188,-4.778 45.23105,-6.7685 72.81024,-6.7685 21.25332,0 39.44374,1.41928 57.90405,4.51788 l 5,0.83926 1.51375,4.71782 c 5.22761,16.29259 15.37882,26.439 32.27981,32.26452 7.2143,2.48667 17.40473,3.33691 23.86321,1.99105 5.49675,-1.14545 11.85587,-4.42445 16.26033,-8.38443 l 3.62859,-3.26242 5.7962,3.567 c 32.22118,19.82908 51.03438,42.73736 56.45971,68.74932 1.96488,9.42068 1.46388,23.13549 -1.20027,32.85714 -4.74549,17.31662 -15.98205,33.57051 -33.14912,47.95082 -29.14329,24.4124 -72.15743,42.47466 -116.1665,48.77999 -18.77266,2.68963 -30.10911,3.40211 -57.5,3.61381 -15.125,0.1169 -28.78571,0.0813 -30.35714,-0.0791 z m -24.58527,-27.42742 c 17.92379,-5.37826 28.66298,-7.36247 46.72813,-8.63363 22.8651,-1.60892 47.79864,0.49004 69.88328,5.88291 10.223,2.49637 13.66743,2.73877 15.3299,1.07887 1.03023,-1.02864 1.25003,-3.0813 1.44274,-13.47371 0.12625,-6.80865 -0.12255,-14.34139 -0.55955,-16.94066 -2.04291,-12.15133 -9.07419,-19.66996 -22.86603,-24.45091 -16.28191,-5.64415 -58.84569,-7.035 -83.84475,-2.7398 -24.62278,4.23055 -37.64724,13.98492 -41.97851,31.43883 -0.61935,2.49582 -0.97555,8.10681 -0.9767,15.38515 -0.003,17.20245 0.29053,17.41929 16.84149,12.45295 z m -1.25699,-85.56504 c 6.85182,-3.03089 16.79425,-12.15277 19.91642,-18.27271 0.96183,-1.88537 1.58097,-4.81903 1.81681,-8.60874 1.04352,-16.76837 -7.1186,-28.37306 -23.6921,-33.68483 -8.40323,-2.69321 -14.73687,-2.60052 -22.2295,0.32532 -16.1772,6.3171 -23.18365,15.85567 -23.18365,31.56216 0,8.61672 1.30785,11.40416 8.87315,18.91145 10.06901,9.99181 14.62043,11.88546 27.60117,11.48365 5.70508,-0.1766 8.3634,-0.59526 10.8977,-1.7163 z m 145.44582,0.47848 c 5.35675,-1.14247 12.57578,-5.42853 16.76553,-9.95397 11.79325,-12.73811 11.66983,-29.20717 -0.3124,-41.6854 -8.94935,-9.31983 -21.89664,-13.14081 -33.91767,-10.00973 -11.00436,2.86628 -20.24651,10.07268 -24.69397,19.25471 -2.27791,4.70287 -2.42252,5.44569 -2.43344,12.5 -0.0103,6.64259 0.20563,7.96342 1.88868,11.55367 3.50682,7.48069 10.29597,13.4803 18.93315,16.73133 8.04488,3.02808 14.9319,3.49438 23.77012,1.60939 z"
       id="path4597"
       inkscape:connector-curvature="0"
       transform="scale(0.26458333)" />
    <path
       style="fill:#00d1b2;fill-opacity:1;stroke:none;stroke-width:0.71541053;stroke-miterlimit:4;stroke-dasharray:none;stroke-opacity:1"
       d="m 260.89237,727.70375 c -4.33712,-5.77919 -8.33053,-16.78597 -8.33053,-22.96088 0,-15.64864 11.60317,-28.68966 28.75722,-32.32079 6.1082,-1.29297 22.05583,-1.07042 24.63563,0.34378 2.05933,1.12889 2.07185,3.60169 0.0317,6.27013 -0.86648,1.13334 -5.8401,6.49243 -11.0525,11.90909 -11.50525,11.95613 -17.76433,19.70436 -23.5015,29.0929 -6.71819,10.99394 -7.57481,11.61695 -10.54006,7.66577 z"
       id="path4599"
       inkscape:connector-curvature="0"
       transform="scale(0.26458333)" />
  </g>
</svg>
